<?xml version="1.0" encoding="UTF-8"?>
<!DOCTYPE svg PUBLIC "-//W3C//DTD SVG 1.1//EN" "http://www.w3.org/Graphics/SVG/1.1/DTD/svg11.dtd">
<svg version="1.1" xmlns="http://www.w3.org/2000/svg" xmlns:xlink="http://www.w3.org/1999/xlink" x="0" y="0" viewBox="0, 0, 400, 400">
  <g id="Background">
    <rect x="0" y="0" width="400" height="400" fill="#000000" fill-opacity="0"/>
  </g>
  <g id="Layer_1">
    <path d="M336.286,223.286 L336.286,336.857 Q336.286,343.009 331.79,347.504 Q327.295,352 321.143,352 L230.286,352 L230.286,261.143 L169.714,261.143 L169.714,352 L78.857,352 Q72.705,352 68.21,347.504 Q63.714,343.009 63.714,336.857 L63.714,223.286 Q63.714,223.049 63.833,222.576 Q63.951,222.103 63.951,221.866 L200,109.714 L336.049,221.866 Q336.286,222.339 336.286,223.286 z M389.049,206.96 L374.379,224.469 Q372.487,226.598 369.411,227.071 L368.701,227.071 Q365.625,227.071 363.732,225.415 L200,88.893 L36.268,225.415 Q33.429,227.308 30.589,227.071 Q27.513,226.598 25.621,224.469 L10.951,206.96 Q9.058,204.594 9.295,201.4 Q9.531,198.205 11.897,196.313 L182.018,54.585 Q189.589,48.433 200,48.433 Q210.411,48.433 217.982,54.585 L275.714,102.853 L275.714,56.714 Q275.714,53.402 277.844,51.272 Q279.973,49.143 283.286,49.143 L328.714,49.143 Q332.027,49.143 334.156,51.272 Q336.286,53.402 336.286,56.714 L336.286,153.25 L388.103,196.313 Q390.469,198.205 390.705,201.4 Q390.942,204.594 389.049,206.96 z" fill="#FFFFFF"/>
  </g>
</svg>
